<svg width="24" height="24" viewBox="0 0 24 24" fill="none" xmlns="http://www.w3.org/2000/svg">
<path fill-rule="evenodd" clip-rule="evenodd" d="M7 17H9L9 7L7 7L7 17ZM5 18L5 6C5 5.44772 5.44772 5 6 5L10 5C10.5523 5 11 5.44772 11 6L11 18C11 18.5523 10.5523 19 10 19H6C5.44772 19 5 18.5523 5 18Z" fill="black"/>
<path fill-rule="evenodd" clip-rule="evenodd" d="M15 17H17V7L15 7L15 17ZM13 18L13 6C13 5.44772 13.4477 5 14 5L18 5C18.5523 5 19 5.44772 19 6V18C19 18.5523 18.5523 19 18 19H14C13.4477 19 13 18.5523 13 18Z" fill="black"/>
</svg>
