<svg width="24" height="24" viewBox="0 0 24 24" fill="none" xmlns="http://www.w3.org/2000/svg">
<path fill-rule="evenodd" clip-rule="evenodd" d="M12 18C15.3137 18 18 15.3137 18 12C18 8.68629 15.3137 6 12 6C8.68629 6 6 8.68629 6 12C6 15.3137 8.68629 18 12 18ZM12 20C16.4183 20 20 16.4183 20 12C20 7.58172 16.4183 4 12 4C7.58172 4 4 7.58172 4 12C4 16.4183 7.58172 20 12 20Z" fill="#891010"/>
<path fill-rule="evenodd" clip-rule="evenodd" d="M10.9393 12L8.46967 9.53033L9.53033 8.46967L12 10.9393L14.4697 8.46967L15.5303 9.53033L13.0607 12L15.5303 14.4697L14.4697 15.5303L12 13.0607L9.53033 15.5303L8.46967 14.4697L10.9393 12Z" fill="#891010"/>
</svg>
