<svg width="24" height="24" viewBox="0 0 24 24" fill="none" xmlns="http://www.w3.org/2000/svg">
<path fill-rule="evenodd" clip-rule="evenodd" d="M11 16C13.7614 16 16 13.7614 16 11C16 8.23858 13.7614 6 11 6C8.23858 6 6 8.23858 6 11C6 13.7614 8.23858 16 11 16ZM11 18C14.866 18 18 14.866 18 11C18 7.13401 14.866 4 11 4C7.13401 4 4 7.13401 4 11C4 14.866 7.13401 18 11 18Z" fill="black"/>
<path fill-rule="evenodd" clip-rule="evenodd" d="M17.7929 19.2071L14.7929 16.2071L16.2071 14.7929L19.2071 17.7929L17.7929 19.2071Z" fill="black"/>
</svg>
