<svg width="24" height="24" viewBox="0 0 24 24" fill="none" xmlns="http://www.w3.org/2000/svg">
<path fill-rule="evenodd" clip-rule="evenodd" d="M9 15.5V16.5C9 16.7761 9.22386 17 9.5 17H19.5C19.7761 17 20 16.7761 20 16.5V15.5C20 15.2239 19.7761 15 19.5 15H9.5C9.22386 15 9 15.2239 9 15.5Z" fill="black"/>
<path fill-rule="evenodd" clip-rule="evenodd" d="M9 11.5V12.5C9 12.7761 9.22386 13 9.5 13H19.5C19.7761 13 20 12.7761 20 12.5V11.5C20 11.2239 19.7761 11 19.5 11H9.5C9.22386 11 9 11.2239 9 11.5Z" fill="black"/>
<path fill-rule="evenodd" clip-rule="evenodd" d="M9 7.5V8.5C9 8.77614 9.22386 9 9.5 9H19.5C19.7761 9 20 8.77614 20 8.5V7.5C20 7.22386 19.7761 7 19.5 7H9.5C9.22386 7 9 7.22386 9 7.5Z" fill="black"/>
<path fill-rule="evenodd" clip-rule="evenodd" d="M4 15.5V16.5C4 16.7761 4.22386 17 4.5 17H6.5C6.77614 17 7 16.7761 7 16.5V15.5C7 15.2239 6.77614 15 6.5 15H4.5C4.22386 15 4 15.2239 4 15.5Z" fill="black"/>
<path fill-rule="evenodd" clip-rule="evenodd" d="M4 11.5V12.5C4 12.7761 4.22386 13 4.5 13H6.5C6.77614 13 7 12.7761 7 12.5V11.5C7 11.2239 6.77614 11 6.5 11H4.5C4.22386 11 4 11.2239 4 11.5Z" fill="black"/>
<path fill-rule="evenodd" clip-rule="evenodd" d="M4 7.5V8.5C4 8.77614 4.22386 9 4.5 9H6.5C6.77614 9 7 8.77614 7 8.5V7.5C7 7.22386 6.77614 7 6.5 7H4.5C4.22386 7 4 7.22386 4 7.5Z" fill="black"/>
</svg>
